<?xml version="1.0" encoding="UTF-8"?>
<svg id="Camada_2" data-name="Camada 2" xmlns="http://www.w3.org/2000/svg" viewBox="0 0 141.68 50.2">
  <defs>
    <style>
      .cls-1 {
        fill: #35383b;
      }
    </style>
  </defs>
  <g id="Camada_1-2" data-name="Camada 1">
    <g>
      <path class="cls-1" d="M4.7,35.13c-.81,4.11,2.24,7,5.75,8.68,5.03,2.41,11.52,3.26,17.11,3.49,12.28.5,25.57-1.68,37.11-5.87,5.15-1.87,11.39-4.72,15.37-8.42,1.72-1.6,3.66-3.95,3.36-6.32-.37-2.88-3.23-4.34-5.79-5.35-.76-.3-1.51-.49-2.19-.99,2.26.28,4.36.83,6.37,1.75,2.98,1.35,5.24,3.96,4.2,7.27-1.35,4.32-6.51,7.98-10.43,10.15-3.67,2.03-7.51,3.65-11.49,5.01-9.27,3.16-18.91,5.02-28.7,5.54-4.53.24-8.98.19-13.46-.24-6.44-.62-15.5-2.56-19.85-7.51-2.72-3.1-2.61-6.97-.51-10.42.96-1.58,2.1-2.94,3.45-4.21,3.56-3.34,8.29-6.12,12.68-8.28,2.38-1.17,4.76-2.16,7.23-3.16.26-4.13,1.51-7.68,4.64-10.49,1.73-1.53,3.73-2.56,5.93-3.28,2.65-.82,5.32-1.19,8.13-1.22h32.67s-9.02,10.86-9.02,10.86h-23.65c-.99,0-1.86.11-2.75.4-1.48.45-2.33,1.77-2.26,3.31.03.82.21,1.72.97,2.18.9.55,1.96.75,3.07.75l19.29.04c3.91,0,8.46.75,11.81,2.69,3.9,2.26,5.16,6.35,4.83,10.73-4.23,3.58-9.59,5.96-14.79,7.86-10.75,3.82-22.06,5.72-33.47,5.71-2.47-.06-4.82-.18-7.29-.43l2.2-8.83h36.7c1.01,0,1.92-.21,2.78-.58,1.56-.66,1.93-2.44,1.66-4.08-.29-1.76-2.08-2.37-3.86-2.37l-23.74-.03c-2.11,0-4.08-.31-6.08-.9-4.75-1.4-7.65-4.88-7.77-9.89-2.46,1.07-4.72,2.11-6.98,3.34-2.84,1.55-5.5,3.24-7.96,5.32-2.35,2.04-4.7,4.72-5.3,7.8Z"/>
      <path class="cls-1" d="M108.63,49.05h-38.65s-3.1-3.83-3.1-3.83c2.68-1,5.19-2.08,7.69-3.35h27.35s6.72,7.18,6.72,7.18Z"/>
      <path class="cls-1" d="M137.05,7.44c-1.79-1.22-3.69-2.14-5.72-2.91-6.69-2.56-14.49-3.8-21.63-4.27-3.96-.26-7.82-.3-11.78-.2-5.87.15-12.67.76-18.05,3.09-6.27,2.66-10.05,7.99-11.38,14.6,3.18.36,6.28.84,9.41,1.46,1.46.29,2.78.67,4.21,1.25.59-3.84,1.66-6.86,5.61-8.02,1.97-.55,3.95-.83,6.02-.83l7.64-.02c1.54,0,3,.23,4.46.65,2.55.74,3.69,2.15,4.19,4.75.51,2.61.47,5.24.14,7.89-.17,1.34-.43,2.6-.92,3.84-.32.81-.74,1.54-1.44,2.08l-4-3.66h-13.43s-4.45,5.82-4.45,5.82c-.97,1.3-1.97,2.45-3.18,3.52-1.61,1.44-3.33,2.61-5.19,3.76h25.06s8.25,8.81,8.25,8.81h19.37s-13.04-10.68-13.04-10.68c.9-.65,1.67-1.39,2.37-2.26,1.15-1.38,2.02-2.89,2.7-4.55,6.3-2.66,16.1-7.75,18.81-14.1,1.76-4.13-.57-7.67-4.04-10.03ZM86,35.4l5.36-7.1,6.67,7.09h-12.03ZM134.19,20.77c-1.27,1.34-2.66,2.43-4.18,3.49-2.11,1.43-4.27,2.67-6.65,3.81,1.24-5.64,1.17-12.31-1.23-17.65-1.39-3.1-3.69-5.47-6.74-7.03,3.98.53,7.72,1.39,11.41,2.62,2.91,1.01,5.74,2.27,8.03,4.32.63.56,1.12,1.21,1.54,1.95,1.69,2.96.04,6.15-2.18,8.49Z"/>
    </g>
  </g>
</svg>